<svg xmlns="http://www.w3.org/2000/svg" width="32" height="32" viewBox="0 0 32 32">
  <!-- Fondo circular -->
  <circle cx="16" cy="16" r="16" fill="#333333"/>
  <!-- Corazón rojo -->
  <path d="M8,12 C8,9.8 9.8,8 12,8 C13.5,8 14.9,8.9 16,10 C17.1,8.9 18.5,8 20,8 C22.2,8 24,9.8 24,12 C24,14.5 21.5,16.5 18,20 L16,22 L14,20 C10.5,16.5 8,14.5 8,12 Z" fill="#E94057"/>
  <!-- Figura humana -->
  <path d="M16,12 C17.1,12 18,11.1 18,10 C18,8.9 17.1,8 16,8 C14.9,8 14,8.9 14,10 C14,11.1 14.9,12 16,12 Z M20,22 L16,18 L12,22 L12,16 L14,14 L16,16 L18,14 L20,16 L20,22 Z" fill="#FFFFFF"/>
</svg>